<?xml version="1.0" encoding="utf-8"?>
<svg width="63px" height="63px" viewBox="0 0 63 63" version="1.1" xmlns:xlink="http://www.w3.org/1999/xlink" xmlns="http://www.w3.org/2000/svg">
  <desc>Created with Lunacy</desc>
  <defs>
    <radialGradient gradientUnits="objectBoundingBox" cx="37.17483%" cy="100.0722%" fx="37.17483%" fy="100.0722%" r="124.6536%" gradientTransform="translate(0.3717483,1.000722),translate(-0.3717483,-1.000722)" id="gradient_1">
      <stop offset="0%" stop-color="#FFDD55" />
      <stop offset="32.8%" stop-color="#FF543F" />
      <stop offset="34.8%" stop-color="#FC5245" />
      <stop offset="50.4%" stop-color="#E64771" />
      <stop offset="64.3%" stop-color="#D53E91" />
      <stop offset="76.1%" stop-color="#CC39A4" />
      <stop offset="84.1%" stop-color="#C837AB" />
    </radialGradient>
    <radialGradient gradientUnits="objectBoundingBox" cx="16.09152%" cy="-1.248497%" fx="16.09152%" fy="-1.248497%" r="82.77018%" gradientTransform="translate(0.1609152,-0.01248498),scale(1,0.6663001),translate(-0.1609152,0.01248498)" id="gradient_2">
      <stop offset="0%" stop-color="#4168C9" />
      <stop offset="99.9%" stop-color="#4168C9" stop-opacity="0" />
    </radialGradient>
    <path d="M0 0L63 0L63 63L0 63L0 0Z" id="path_1" />
    <clipPath id="mask_1">
      <use xlink:href="#path_1" />
    </clipPath>
  </defs>
  <g id="icons8-instagram">
    <path d="M0 0L63 0L63 63L0 63L0 0Z" id="Background" fill="none" stroke="none" />
    <g clip-path="url(#mask_1)">
      <path d="M36.7854 47.25L10.5354 47.275C4.76044 47.2802 0.0315046 42.5605 0.024942 36.7854L4.38094e-06 10.5354C-0.00524587 4.76044 4.71451 0.0315046 10.4895 0.024942L36.7395 4.38094e-06C42.5145 -0.00524587 47.2435 4.71451 47.25 10.4895L47.275 36.7395C47.2815 42.5158 42.5605 47.2448 36.7854 47.25L36.7854 47.25Z" transform="translate(7.861938 7.861877)" id="Shape" fill="url(#gradient_1)" stroke="none" />
      <path d="M36.7854 47.25L10.5354 47.275C4.76044 47.2802 0.0315046 42.5605 0.024942 36.7854L4.38094e-06 10.5354C-0.00524587 4.76044 4.71451 0.0315046 10.4895 0.024942L36.7395 4.38094e-06C42.5145 -0.00524587 47.2435 4.71451 47.25 10.4895L47.275 36.7395C47.2815 42.5158 42.5605 47.2448 36.7854 47.25L36.7854 47.25Z" transform="translate(7.861938 7.861877)" id="Shape" fill="url(#gradient_2)" stroke="none" />
      <path d="M0 9.1875C0 14.2538 4.12256 18.375 9.1875 18.375C14.2524 18.375 18.375 14.2538 18.375 9.1875C18.375 4.12125 14.2524 0 9.1875 0C4.12256 0 0 4.12125 0 9.1875ZM2.625 9.1875C2.625 5.56894 5.56894 2.625 9.1875 2.625C12.8061 2.625 15.75 5.56894 15.75 9.1875C15.75 12.8061 12.8061 15.75 9.1875 15.75C5.56894 15.75 2.625 12.8061 2.625 9.1875Z" transform="translate(22.3125 22.3125)" id="Shape" fill="#FFFFFF" fill-rule="evenodd" stroke="none" />
      <path d="M0 1.96875C0 0.881439 0.881439 0 1.96875 0C3.05606 0 3.9375 0.881439 3.9375 1.96875C3.9375 3.05606 3.05606 3.9375 1.96875 3.9375C0.881439 3.9375 0 3.05606 0 1.96875Z" transform="translate(39.375 19.6875)" id="Circle" fill="#FFFFFF" stroke="none" />
      <path d="M9.1875 34.125L24.9375 34.125C30.0024 34.125 34.125 30.0038 34.125 24.9375L34.125 9.1875C34.125 4.12125 30.0024 0 24.9375 0L9.1875 0C4.12256 0 0 4.12125 0 9.1875L0 24.9375C0 30.0038 4.12256 34.125 9.1875 34.125ZM2.625 9.1875C2.625 5.56894 5.56894 2.625 9.1875 2.625L24.9375 2.625C28.5561 2.625 31.5 5.56894 31.5 9.1875L31.5 24.9375C31.5 28.5561 28.5561 31.5 24.9375 31.5L9.1875 31.5C5.56894 31.5 2.625 28.5561 2.625 24.9375L2.625 9.1875Z" transform="translate(14.4375 14.4375)" id="Shape" fill="#FFFFFF" fill-rule="evenodd" stroke="none" />
    </g>
  </g>
</svg>