<?xml version="1.0" encoding="utf-8"?>
<svg width="76px" height="76px" viewBox="0 0 76 76" version="1.1" xmlns:xlink="http://www.w3.org/1999/xlink" xmlns="http://www.w3.org/2000/svg">
  <desc>Created with Lunacy</desc>
  <defs>
    <path d="M0 0L76 0L76 76L0 76L0 0Z" id="path_1" />
    <clipPath id="mask_1">
      <use xlink:href="#path_1" />
    </clipPath>
  </defs>
  <g id="icons8-github">
    <path d="M0 0L76 0L76 76L0 76L0 0Z" id="Background" fill="none" stroke="none" />
    <g clip-path="url(#mask_1)">
      <path d="M28.5 0C12.7563 0 0 12.7563 0 28.5C0 41.0894 8.16406 51.7769 19.4917 55.5435C20.9204 55.8032 21.4399 54.9311 21.4399 54.1704C21.4399 53.4932 21.4121 51.7026 21.4028 49.3276C13.4707 51.0439 11.8008 45.5054 11.8008 45.5054C10.502 42.2119 8.63721 41.3306 8.63721 41.3306C6.04883 39.5679 8.83203 39.605 8.83203 39.605C11.6895 39.8091 13.1924 42.5366 13.1924 42.5366C15.7344 46.897 19.8628 45.6353 21.4863 44.9116C21.7461 43.0654 22.4883 41.813 23.2954 41.0986C16.9683 40.3843 10.3164 37.9351 10.3164 27.0156C10.3164 23.8984 11.4297 21.3564 13.248 19.3618C12.9605 18.6475 11.9771 15.7437 13.5264 11.8193C13.5264 11.8193 15.9199 11.0586 21.3657 14.7417C23.6387 14.1108 26.0786 13.7954 28.5 13.7861C30.9214 13.7954 33.3613 14.1108 35.6343 14.7417C41.0801 11.0586 43.4644 11.8193 43.4644 11.8193C45.023 15.7437 44.0488 18.6475 43.752 19.3618C45.5796 21.3564 46.6743 23.8984 46.6743 27.0156C46.6743 37.9629 40.0132 40.3657 33.6675 41.0801C34.688 41.9521 35.5972 43.6963 35.5972 46.3496C35.5972 50.1626 35.5693 53.2334 35.5693 54.1704C35.5693 54.9311 36.0796 55.8218 37.5269 55.5435C48.8452 51.7676 57 41.0894 57 28.5C57 12.7563 44.2437 0 28.5 0L28.5 0Z" transform="translate(9.5 9.5)" id="Shape" fill="#FFFFFF" stroke="none" />
    </g>
  </g>
</svg>