<?xml version="1.0" encoding="utf-8"?>
<svg width="61px" height="61px" viewBox="0 0 61 61" version="1.1" xmlns:xlink="http://www.w3.org/1999/xlink" xmlns="http://www.w3.org/2000/svg">
  <desc>Created with Lunacy</desc>
  <defs>
    <path d="M0 0L61 0L61 61L0 61L0 0Z" id="path_1" />
    <clipPath id="mask_1">
      <use xlink:href="#path_1" />
    </clipPath>
  </defs>
  <g id="Twitter-icon">
    <path d="M0 0L61 0L61 61L0 61L0 0Z" id="Background" fill="none" stroke="none" />
    <g clip-path="url(#mask_1)">
      <path d="M60.0377 5.77374C57.829 6.75436 55.4554 7.41421 52.9626 7.71665C55.5012 6.18615 57.4624 3.77584 58.3789 0.898138C55.9961 2.30949 53.3567 3.33594 50.5523 3.88582C48.3069 1.49384 45.1085 0 41.5617 0C34.7616 0 29.2444 5.51713 29.2444 12.3173C29.2444 13.2796 29.3544 14.2236 29.5652 15.1217C19.3283 14.6085 10.2553 9.69622 4.17909 2.24534C3.11599 4.06911 2.51112 6.18615 2.51112 8.44982C2.51112 12.7206 4.68314 16.4872 7.99159 18.6959C5.9662 18.6318 4.06911 18.0819 2.41031 17.1562C2.41031 17.2112 2.41031 17.2571 2.41031 17.312C2.41031 23.2782 6.65355 28.2547 12.2898 29.3911C11.2542 29.6752 10.1728 29.8218 9.04552 29.8218C8.2482 29.8218 7.47837 29.7485 6.72686 29.6019C8.29402 34.4866 12.8397 38.0608 18.2285 38.1525C14.0219 41.4609 8.70643 43.4222 2.93269 43.4222C1.93374 43.4222 0.962289 43.3672 0 43.2572C5.44381 46.7489 11.9232 48.7835 18.8792 48.7835C41.5343 48.7835 53.9249 30.0143 53.9249 13.747C53.9249 13.2063 53.9157 12.6747 53.8882 12.1432C56.2985 10.4202 58.3881 8.2482 60.0377 5.77374" transform="translate(0.6231689 7.30426)" id="Shape" fill="#59ADFF" stroke="none" />
    </g>
  </g>
</svg>